#!OML:ASF F:\VICON\USERDATA\INSTALL\rory3\rory3.ASF
:FULLY-SPECIFIED
:DEGREES
3744
root -5.28907 17.4681 -4.16768 1.02788 70.8557 -3.3662
lowerback 3.77559 -5.68231 -5.58004
upperback 0.974457 -7.74814 3.1121
thorax 0.0783079 -3.91696 6.54567
lowerneck -7.01847 -16.2753 -17.8497
upperneck 18.129 -21.3487 7.819
head 9.65239 -10.6079 2.69673
rclavicle -1.16786e-014 -3.57812e-015
rhumerus -26.8887 -34.071 -45.8227
rradius 59.85
rwrist -37.0576
rhand -34.5717 -11.3037
rfingers 7.12502
rthumb -7.73141 -41.1424
lclavicle -1.16786e-014 -3.57812e-015
lhumerus -30.1466 1.44187 80.299
lradius 45.3234
lwrist -8.43671
lhand -8.62152 29.7104
lfingers 7.12502
lthumb 17.3107 -1021.04
rfemur -31.4966 -9.18106 21.093
rtibia 37.2049
rfoot -9.83627 -8.6877
rtoes 14.8218
lfemur 0.0839112 4.86994 -24.0828
ltibia 23.0103
lfoot -22.061 5.27807
ltoes -7.84537
3745
root -5.29204 17.468 -4.17653 1.02063 70.9051 -3.25607
lowerback 3.77599 -5.68608 -5.70083
upperback 0.997084 -7.75851 3.04439
thorax 0.109783 -3.92413 6.54018
lowerneck -7.05847 -16.2444 -17.7574
upperneck 18.2719 -21.2894 7.67436
head 9.67386 -10.5854 2.64338
rclavicle 6.65183e-014 -5.36719e-015
rhumerus -25.5537 -36.0124 -45.1731
rradius 59.0305
rwrist -38.0308
rhand -34.9734 -10.8673
rfingers 7.12502
rthumb -8.11914 -40.6914
lclavicle 6.65183e-014 -5.36719e-015
lhumerus -28.9398 1.09274 79.977
lradius 45.3159
lwrist -8.1405
lhand -8.37448 29.9768
lfingers 7.12502
lthumb 17.5485 -1020.8
rfemur -31.3828 -9.20332 21.0135
rtibia 37.1857
rfoot -10.0245 -8.84947
rtoes 16.0106
lfemur 0.14414 4.92191 -24.1343
ltibia 23.0683
lfoot -22.0125 5.26781
ltoes -8.36209
3746
root -5.29637 17.4669 -4.19257 1.03408 70.9286 -3.22929
lowerback 3.77847 -5.70856 -5.60513
upperback 0.916814 -7.78757 2.90372
thorax -0.00366258 -3.93088 6.34722
lowerneck -7.01264 -16.1685 -17.6205
upperneck 18.4646 -21.1975 7.55218
head 9.69121 -10.5465 2.60411
rclavicle -9.19379e-015 5.96354e-015
rhumerus -24.3334 -37.602 -44.6461
rradius 58.3031
rwrist -39.2253
rhand -35.4329 -10.8363
rfingers 7.12502
rthumb -8.56258 -40.6426
lclavicle -9.19379e-015 5.96354e-015
lhumerus -27.8046 0.461249 79.724
lradius 45.4732
lwrist -6.73182
lhand -8.17405 30.334
lfingers 7.12502
lthumb 17.7414 -1020.46
rfemur -31.3845 -9.30611 20.9843
rtibia 37.0913
rfoot -9.92096 -9.05413
rtoes 16.1984
lfemur 0.0499261 4.91616 -24.199
ltibia 23.1944
lfoot -21.9283 5.38749
ltoes -9.13333
3747
root -5.30042 17.4695 -4.2033 0.691442 71.0536 -3.5599
lowerback 3.8709 -5.80033 -5.35041
upperback 0.797958 -7.90711 2.76034
thorax -0.216148 -3.97815 6.07831
lowerneck -7.08668 -16.0633 -17.5386
upperneck 18.834 -21.0527 7.44418
head 9.79423 -10.4802 2.57054
rclavicle -9.91625e-014 1.92324e-014
rhumerus -23.1309 -38.8791 -44.2896
rradius 57.6534
rwrist -40.3077
rhand -35.7312 -11.3773
rfingers 7.12502
rthumb -8.8504 -41.1717
lclavicle -9.91625e-014 1.92324e-014
lhumerus -26.8348 -0.618049 79.5821
lradius 45.9635
lwrist -3.88834
lhand -8.43935 30.9877
lfingers 7.12502
lthumb 17.4861 -1019.78
rfemur -31.3152 -9.3565 21.0423
rtibia 36.9486
rfoot -9.95011 -9.30169
rtoes 16.756
lfemur -0.0408499 4.74256 -24.1218
ltibia 23.3591
lfoot -21.7963 5.51948
ltoes -10.0219
3748
root -5.30021 17.4781 -4.20189 -0.864609 71.1381 -4.94441
lowerback 4.01787 -5.85328 -4.98945
upperback 0.821331 -7.96725 2.78459
thorax -0.31108 -4.00426 5.92203
lowerneck -7.16067 -16.0009 -17.5753
upperneck 19.1228 -20.955 7.38665
head 9.89537 -10.4387 2.56035
rclavicle -1.51673e-013 1.38155e-014
rhumerus -21.6641 -40.2388 -43.9854
rradius 56.9326
rwrist -41.1216
rhand -36.0687 -11.8605
rfingers 7.12502
rthumb -9.17605 -41.6408
lclavicle -1.51673e-013 1.38155e-014
lhumerus -25.7254 -1.43686 79.4594
lradius 46.4829
lwrist -1.10009
lhand -8.41922 32.1193
lfingers 7.12502
lthumb 17.5054 -1018.65
rfemur -30.9487 -9.22761 21.4496
rtibia 36.8576
rfoot -10.2047 -9.53941
rtoes 17.9586
lfemur 0.16898 4.68792 -23.5568
ltibia 23.4825
lfoot -21.789 5.1812
ltoes -9.41607
3749
root -5.29863 17.4846 -4.20612 -1.33004 71.1132 -5.28288
lowerback 3.97724 -5.85206 -4.94488
upperback 0.856978 -7.96234 2.73016
thorax -0.266289 -4.0036 5.83395
lowerneck -7.17927 -15.946 -17.6327
upperneck 19.3465 -20.8868 7.40585
head 9.97911 -10.4076 2.57862
rclavicle -4.93918e-014 -1.52195e-014
rhumerus -19.811 -41.9034 -43.9234
rradius 56.0713
rwrist -41.6502
rhand -36.439 -11.9931
rfingers 7.12502
rthumb -9.53341 -41.7574
lclavicle -4.93918e-014 -1.52195e-014
lhumerus -24.5696 -1.94378 79.2102
lradius 46.9787
lwrist 1.74833
lhand -8.05932 33.5486
lfingers 7.12502
lthumb 17.8518 -1017.25
rfemur -30.7879 -9.19104 21.5405
rtibia 36.8706
rfoot -10.3047 -9.63945
rtoes 18.31
lfemur 0.304773 4.76576 -23.3842
ltibia 23.545
lfoot -21.8451 4.7809
ltoes -8.26152
3750
root -5.30072 17.4845 -4.22404 0.330265 71.1465 -3.67195
lowerback 3.75787 -5.85806 -5.37928
upperback 0.797315 -7.98317 2.53729
thorax -0.171687 -4.0165 5.85015
lowerneck -7.31664 -15.9109 -17.6959
upperneck 19.5735 -20.8105 7.36429
head 10.078 -10.3742 2.56937
rclavicle 2.36485e-013 -3.3812e-014
rhumerus -17.7931 -43.5885 -44.0818
rradius 55.3541
rwrist -42.1394
rhand -36.5255 -11.8731
rfingers 7.12502
rthumb -9.61681 -41.6336
lclavicle 2.36485e-013 -3.3812e-014
lhumerus -23.458 -2.51901 79.0062
lradius 47.65
lwrist 5.28458
lhand -7.53045 34.6719
lfingers 7.12502
lthumb 18.3606 -1016.17
rfemur -31.0737 -9.51622 20.9985
rtibia 36.9902
rfoot -10.1335 -9.52501
rtoes 18.2799
lfemur 0.115575 4.72422 -24.0115
ltibia 23.5872
lfoot -21.8178 4.60902
ltoes -7.48134
3751
root -5.30351 17.4852 -4.24167 1.45029 71.1883 -2.57888
lowerback 3.66387 -5.90609 -5.60876
upperback 0.762805 -8.05473 2.34508
thorax -0.141626 -4.05212 5.76819
lowerneck -7.66707 -15.839 -17.5373
upperneck 19.8429 -20.6704 7.25942
head 10.1883 -10.2956 2.50733
rclavicle 5.15629e-014 -6.95746e-015
rhumerus -15.9335 -44.9037 -44.4591
rradius 55.136
rwrist -42.9819
rhand -36.8014 -12.0503
rfingers 7.12502
rthumb -9.883 -41.7983
lclavicle 5.15629e-014 -6.95746e-015
lhumerus -22.1935 -3.22964 78.8355
lradius 48.4982
lwrist 9.83589
lhand -7.54049 36.3399
lfingers 7.12502
lthumb 18.3509 -1014.51
rfemur -31.3435 -9.89287 20.6484
rtibia 37.2078
rfoot -9.91189 -9.38426
rtoes 17.6846
lfemur -0.00295038 4.74 -24.4409
ltibia 23.5937
lfoot -21.7754 4.40099
ltoes -6.78922
3752
root -5.30576 17.4849 -4.25315 1.32056 71.2516 -2.65843
lowerback 3.62885 -5.93584 -5.64909
upperback 0.80477 -8.09349 2.33984
thorax -0.068318 -4.07527 5.77729
lowerneck -7.86179 -15.7243 -17.4732
upperneck 19.985 -20.4844 7.21225
head 10.2374 -10.2029 2.50024
rclavicle 1.06723e-014 -1.43622e-014
rhumerus -13.7316 -46.4962 -45.0195
rradius 54.9224
rwrist -43.6102
rhand -37.1568 -12.4009
rfingers 7.12502
rthumb -10.2259 -42.1323
lclavicle 1.06723e-014 -1.43622e-014
lhumerus -20.6182 -3.80695 78.8926
lradius 49.2869
lwrist 14.8347
lhand -7.32036 37.7374
lfingers 7.12502
lthumb 18.5627 -1013.13
rfemur -31.4422 -10.1653 20.6993
rtibia 37.4575
rfoot -9.71832 -9.34249
rtoes 16.0393
lfemur 0.0178339 4.8407 -24.4119
ltibia 23.6221
lfoot -21.7197 4.20045
ltoes -6.5076
3753
root -5.30803 17.4833 -4.25944 1.11397 71.2742 -2.78179
lowerback 3.53105 -5.91459 -5.87233
upperback 0.912038 -8.06562 2.47281
thorax 0.144295 -4.07379 6.01655
lowerneck -7.97928 -15.6554 -17.659
upperneck 19.9778 -20.3359 7.22121
head 10.2597 -10.1417 2.54395
rclavicle 3.73552e-014 -2.11519e-015
rhumerus -11.0326 -48.2149 -45.8392
rradius 54.7144
rwrist -44.0905
rhand -37.2247 -12.3463
rfingers 7.12502
rthumb -10.2914 -42.0746
lclavicle 3.73552e-014 -2.11519e-015
lhumerus -18.8253 -3.97873 79.1422
lradius 49.92
lwrist 19.4109
lhand -6.72356 38.3774
lfingers 7.12502
lthumb 19.1367 -1012.54
rfemur -31.4683 -10.2777 20.7509
rtibia 37.6511
rfoot -9.63924 -9.44304
rtoes 15.374
lfemur 0.0405333 4.95588 -24.3562
ltibia 23.7416
lfoot -21.7115 4.06274
ltoes -6.51352
3754
root -5.31062 17.4828 -4.26225 0.93159 71.2983 -2.89397
lowerback 3.48655 -5.93411 -5.96983
upperback 0.955412 -8.09197 2.50773
thorax 0.236849 -4.09242 6.09703
lowerneck -8.1665 -15.6102 -17.7197
upperneck 20.1666 -20.2047 7.07063
head 10.3349 -10.092 2.50618
rclavicle 7.50334e-015 -3.92413e-014
rhumerus -8.3972 -49.5379 -47.0086
rradius 54.8527
rwrist -44.7241
rhand -37.3367 -11.996
rfingers 7.12502
rthumb -10.3995 -41.7188
lclavicle 7.50334e-015 -3.92413e-014
lhumerus -17.2036 -4.10807 79.2479
lradius 50.7138
lwrist 24.1349
lhand -7.40066 39.3292
lfingers 7.12502
lthumb 18.4854 -1011.53
rfemur -31.4729 -10.3416 20.8078
rtibia 37.7764
rfoot -9.66186 -9.60914
rtoes 15.5709
lfemur 0.00726463 5.15811 -24.277
ltibia 23.9506
lfoot -21.7433 3.94706
ltoes -7.05025
3755
root -5.31232 17.4835 -4.26375 0.872871 71.3449 -2.82566
lowerback 3.6061 -5.97779 -5.99711
upperback 0.893806 -8.15971 2.37981
thorax 0.101151 -4.11884 5.99835
lowerneck -8.21378 -15.4758 -17.5695
upperneck 20.5286 -20.018 6.91402
head 10.4156 -10.0087 2.45915
rclavicle -1.03617e-014 -5.36719e-015
rhumerus -6.01091 -50.5828 -48.4017
rradius 55.3035
rwrist -45.5043
rhand -37.5973 -11.79
rfingers 7.12502
rthumb -10.6509 -41.5001
lclavicle -1.03617e-014 -5.36719e-015
lhumerus -15.8862 -4.58747 79.1495
lradius 51.9187
lwrist 29.5293
lhand -8.41359 40.2081
lfingers 7.12502
lthumb 17.5108 -1010.56
rfemur -31.4416 -10.476 20.7957
rtibia 37.8883
rfoot -9.70147 -9.72906
rtoes 16.4377
lfemur 0.0545868 5.2819 -24.2413
ltibia 24.1636
lfoot -21.7578 3.75256
ltoes -7.63095
3756
root -5.31344 17.4922 -4.27028 1.00999 71.409 -2.62167
lowerback 3.67505 -5.99228 -6.0293
upperback 0.824682 -8.18651 2.24991
thorax -0.0199819 -4.12507 5.89534
lowerneck -8.16726 -15.3324 -17.5143
upperneck 20.8086 -19.851 6.91441
head 10.4815 -9.92962 2.48171
rclavicle 2.37299e-014 1.08835e-014
rhumerus -3.58565 -51.5502 -49.9002
rradius 55.9741
rwrist -46.3549
rhand -37.6222 -11.4349
rfingers 7.12502
rthumb -10.6749 -41.1437
lclavicle 2.37299e-014 1.08835e-014
lhumerus -14.5043 -5.1332 79.1059
lradius 53.3453
lwrist 35.1212
lhand -8.90355 40.7501
lfingers 7.12502
lthumb 17.0393 -1009.98
rfemur -31.5212 -10.7643 20.7734
rtibia 38.0142
rfoot -9.60504 -9.81732
rtoes 16.8725
lfemur 0.0772095 5.12729 -24.2939
ltibia 24.3329
lfoot -21.6912 3.55643
ltoes -7.70268
3757
root -5.3149 17.4964 -4.27751 0.958182 71.4295 -2.69002
lowerback 3.66001 -5.98609 -5.97429
upperback 0.799379 -8.17641 2.18722
thorax -0.0565204 -4.11728 5.80091
lowerneck -8.24071 -15.2238 -17.3866
upperneck 21.0045 -19.6868 6.78845
head 10.5164 -9.85468 2.44488
rclavicle 1.42752e-014 -2.78299e-015
rhumerus -0.719592 -52.4555 -51.7953
rradius 56.7845
rwrist -46.9663
rhand -37.6059 -11.0686
rfingers 7.12502
rthumb -10.6591 -40.7782
lclavicle 1.42752e-014 -2.78299e-015
lhumerus -12.9018 -5.47976 79.1486
lradius 54.7775
lwrist 40.4124
lhand -8.83144 41.1799
lfingers 7.12502
lthumb 17.1087 -1009.55
rfemur -31.7255 -11.0708 20.9147
rtibia 38.1613
rfoot -9.5493 -10.0646
rtoes 16.5002
lfemur -0.0421921 5.22694 -24.2533
ltibia 24.4958
lfoot -21.6349 3.32112
ltoes -7.62107
3758
root -5.31465 17.4905 -4.28188 0.704113 71.4392 -2.93076
lowerback 3.67177 -5.97803 -5.90667
upperback 0.793326 -8.16379 2.18818
thorax -0.0805387 -4.10968 5.76709
lowerneck -8.33967 -15.1093 -17.2992
upperneck 21.1956 -19.4868 6.60441
head 10.5485 -9.77077 2.39784
rclavicle -6.93758e-014 9.64106e-015
rhumerus 2.17974 -53.037 -53.752
rradius 57.8467
rwrist -47.5788
rhand -37.4542 -10.7482
rfingers 7.12502
rthumb -10.5128 -40.4654
lclavicle -6.93758e-014 9.64106e-015
lhumerus -11.2696 -5.69076 79.3171
lradius 56.2895
lwrist 45.601
lhand -8.20405 41.3287
lfingers 7.12502
lthumb 17.7125 -1009.46
rfemur -31.9034 -11.3421 21.1095
rtibia 38.312
rfoot -9.64028 -10.4182
rtoes 16.3235
lfemur -0.163911 5.50268 -24.1735
ltibia 24.6593
lfoot -21.6349 3.33705
ltoes -8.12353
